<svg width="31" height="31" viewBox="0 0 31 31" fill="none" xmlns="http://www.w3.org/2000/svg">
<path d="M18.4183 4.35938H30.0918C30.5934 4.35938 31 4.76594 31 5.26758V16.9411C31 17.4427 30.5934 17.8493 30.0918 17.8493H25.1634V25.6962C25.1634 26.1976 24.7568 26.6044 24.2552 26.6044H21.3366C20.9459 26.6044 20.5987 26.3542 20.4753 25.9834L17.5569 17.2284C17.526 17.1357 17.5101 17.0387 17.5101 16.9411V5.26758C17.5101 4.76594 17.9167 4.35938 18.4183 4.35938V4.35938ZM19.3265 16.7937L21.9913 24.7878H23.347V16.9411C23.347 16.4394 23.7535 16.0329 24.2552 16.0329H29.1836V6.17578H19.3265V16.7937Z" fill="#111827"/>
<path d="M0.908302 4.35938H12.5818C13.0834 4.35938 13.49 4.76594 13.49 5.26758V16.9411C13.49 17.4427 13.0834 17.8493 12.5818 17.8493H7.65313V25.6962C7.65313 26.1976 7.24657 26.6044 6.74493 26.6044H3.82661C3.43566 26.6044 3.0887 26.3542 2.965 25.9834L0.0466919 17.2284C0.0159454 17.1357 9.91821e-05 17.0387 9.91821e-05 16.9411V5.26758C9.91821e-05 4.76594 0.406662 4.35938 0.908302 4.35938V4.35938ZM1.81651 16.7937L4.48128 24.7878H5.83672V16.9411C5.83672 16.4394 6.24352 16.0329 6.74493 16.0329H11.6736V6.17578H1.81651V16.7937Z" fill="#111827"/>
</svg>
