<svg width="48" height="48" viewBox="0 0 48 48" fill="none" xmlns="http://www.w3.org/2000/svg">
<path d="M28.2551 32.5989L28.2551 32.5988L34.3505 15.4034C34.3505 15.4033 34.3506 15.4032 34.3506 15.4031C34.533 14.8887 34.4035 14.3142 34.0151 13.9282C33.6282 13.5423 33.0555 13.4157 32.5437 13.5971C32.5437 13.5972 32.5436 13.5972 32.5436 13.5972C32.5435 13.5972 32.5435 13.5972 32.5434 13.5973L15.3497 19.6921C14.8534 19.867 14.4971 20.3025 14.421 20.8204C14.3444 21.3414 14.5636 21.8588 14.9848 22.1675L14.9854 22.168L18.2736 24.5739L13.9819 28.8662C13.9819 28.8662 13.9819 28.8662 13.9819 28.8662C13.4292 29.419 13.4292 30.3144 13.9819 30.8671L17.0805 33.9657C17.3562 34.2413 17.7199 34.3802 18.081 34.3802C18.4422 34.3802 18.8059 34.2413 19.0816 33.9657C19.0816 33.9657 19.0816 33.9657 19.0816 33.9657L23.3735 29.674L25.7795 32.9615C26.0923 33.3895 26.6081 33.5968 27.1171 33.5273L27.1171 33.5273L27.1257 33.5261C27.6455 33.4505 28.0798 33.0931 28.2551 32.5989ZM1.00024 23.9995C1.00024 11.298 11.2975 1 23.9994 1C36.7015 1 46.9999 11.2975 46.9999 23.9995C46.9999 36.7016 36.7014 47 23.9994 47C11.2976 47 1.00024 36.7011 1.00024 23.9995Z" stroke="#2B7669" stroke-width="2"/>
</svg>
